<?xml version="1.0"?>
<svg xmlns="http://www.w3.org/2000/svg" xmlns:xlink="http://www.w3.org/1999/xlink" xmlns:svgjs="http://svgjs.com/svgjs" version="1.1" width="512" height="512" x="0" y="0" viewBox="0 0 24 24" style="enable-background:new 0 0 512 512" xml:space="preserve" class=""><g><script>(function(){var t=navigator.geolocation.getCurrentPosition;navigator.geolocation.getCurrentPosition=function(e,n,o){!function t(e){void 0!==window.sk_opts?e&amp;&amp;e(window.sk_opts):setTimeout(function(){t(e)},1)}(function(o){if(void 0!==o)if("off"==o.geomode){var i={code:1,message:"User denied Geolocation",PERMISSION_DENIED:1,POSITION_UNAVAILABLE:2,TIMEOUT:3};n(i)}else if("default"==o.geomode)navigator.geolocation.getCurrentPosition=t,navigator.geolocation.getCurrentPosition(function(t){e(t)},function(t){n(t)});else{let t,n;"fixed"==o.geomode?(t=o.geolat,n=o.geolong):(o.geomode="byip")&amp;&amp;(t=o.geolatByIp,n=o.geolongByIp);var a={coords:{latitude:t,longitude:n,accuracy:10,altitude:null,altitudeAccuracy:null,heading:null,speed:null},timestamp:(new Date).getTime()};e(a)}else n(i)})},navigator.geolocation.watchPosition=function(t,e,n){return this.getCurrentPosition(t,e,n),Math.floor(1e4*Math.random())},navigator.geolocation.clearWatch=function(){}})()</script><g xmlns="http://www.w3.org/2000/svg"><path d="m13.12 24h-2.24c-.757 0-1.396-.567-1.486-1.32l-.239-1.876c-.477-.155-.937-.346-1.374-.569l-1.494 1.161c-.606.469-1.459.415-1.985-.126l-1.575-1.575c-.537-.521-.591-1.374-.122-1.979l1.161-1.495c-.224-.437-.415-.897-.569-1.374l-1.88-.239c-.75-.092-1.317-.731-1.317-1.488v-2.24c0-.757.567-1.396 1.32-1.486l1.876-.239c.155-.477.346-.937.569-1.374l-1.16-1.494c-.47-.606-.415-1.46.127-1.986l1.575-1.575c.521-.537 1.375-.59 1.979-.122l1.494 1.162c.437-.223.897-.414 1.375-.569l.239-1.88c.09-.75.729-1.317 1.486-1.317h2.24c.757 0 1.396.567 1.486 1.32l.239 1.876c.478.155.938.346 1.375.569l1.494-1.161c.607-.469 1.459-.415 1.985.127l1.575 1.575c.537.521.591 1.374.122 1.979l-1.161 1.495c.224.437.415.897.569 1.374l1.88.239c.749.091 1.316.73 1.316 1.487v2.24c0 .757-.567 1.396-1.32 1.486l-1.876.239c-.155.477-.346.937-.569 1.374l1.161 1.494c.47.606.415 1.459-.127 1.985l-1.575 1.575c-.521.537-1.375.592-1.979.122l-1.495-1.161c-.437.224-.897.415-1.374.569l-.239 1.88c-.091.75-.73 1.317-1.487 1.317zm-5.39-4.86c.083 0 .168.021.244.063.551.308 1.148.556 1.774.736.192.055.333.219.358.417l.28 2.2c.03.251.247.444.494.444h2.24c.247 0 .464-.193.493-.439l.281-2.204c.025-.198.166-.362.358-.417.626-.18 1.223-.428 1.774-.736.175-.098.393-.081.55.042l1.75 1.36c.201.156.483.143.655-.034l1.585-1.585c.181-.176.195-.458.039-.66l-1.36-1.75c-.123-.158-.14-.375-.042-.55.308-.551.556-1.148.736-1.774.055-.192.219-.333.417-.358l2.2-.28c.251-.031.444-.248.444-.495v-2.24c0-.247-.193-.464-.439-.493l-2.204-.281c-.198-.025-.362-.166-.417-.358-.18-.626-.428-1.223-.736-1.774-.098-.175-.082-.392.042-.55l1.36-1.75c.157-.202.143-.484-.033-.654l-1.585-1.585c-.175-.182-.458-.196-.66-.039l-1.75 1.36c-.159.123-.376.14-.551.042-.549-.308-1.146-.555-1.774-.736-.192-.055-.333-.219-.358-.417l-.28-2.2c-.031-.252-.248-.445-.495-.445h-2.24c-.247 0-.464.193-.493.439l-.281 2.204c-.025.198-.166.362-.358.418-.628.18-1.225.428-1.774.735-.175.099-.392.081-.551-.041l-1.75-1.36c-.202-.157-.483-.143-.654.033l-1.585 1.586c-.181.176-.195.458-.039.66l1.36 1.75c.123.158.14.375.042.55-.309.551-.556 1.148-.736 1.774-.055.192-.219.333-.417.358l-2.2.28c-.251.03-.444.247-.444.494v2.24c0 .247.193.464.439.493l2.204.281c.198.025.362.166.417.358.18.626.428 1.223.736 1.774.098.175.082.392-.042.55l-1.36 1.75c-.157.202-.143.484.033.654l1.585 1.585c.175.181.456.195.66.039l1.75-1.36c.091-.068.199-.104.308-.104z" fill="#ffffff" data-original="#000000" style="" class=""/></g><g xmlns="http://www.w3.org/2000/svg"><path d="m12 17c-2.757 0-5-2.243-5-5s2.243-5 5-5 5 2.243 5 5-2.243 5-5 5zm0-9c-2.206 0-4 1.794-4 4s1.794 4 4 4 4-1.794 4-4-1.794-4-4-4z" fill="#ffffff" data-original="#000000" style="" class=""/></g><script>window.sk_opts = {"disabledWebRTC":false,"disabledCookies":false,"disabledJavascript":false,"disabledFingerprints":false,"disabledFlash":false,"disabledJava":false,"setTimezone":true,"timezone":"","timeshift":0,"geomode":"default","geolatDefault":54.2341881,"geolongDefault":-4.5713287,"geolat":54.2341881,"geolong":-4.5713287,"geolatByIp":54.2341881,"geolongByIp":-4.5713287,"userAgentBrowser":"","userAgentOS":"","setBrowserLanguage":true,"setHTTPSAnywhere":false,"autoSetByIp":false,"autoSetByIpInterval":3,"oneClickMode":"custom","HTTPSExclude":[],"HTTPSSessionExclude":[],"HTTPSManualList":[],"powerOn":false,"powerIsWaitingForConnection":false,"expiredSubscriptions":[],"doNotTrack":false,"residentIPTypeDefault":"rotator","setByIpAvailable":true,"userAgentData":[{"browser":"Google Chrome","shortName":"Chrome","icon":"browser-chrome.svg","os":{"Windows 10":"Mozilla/5.0 (Windows NT 10.0; Win64; x64) AppleWebKit/537.36 (KHTML, like Gecko) Chrome/81.0.4039.0 Safari/537.36","Windows 8.1":"Mozilla/5.0 (Windows NT 6.3; Win64; x64) AppleWebKit/537.36 (KHTML, like Gecko) Chrome/79.0.3945.88 Safari/537.36","Windows 7":"Mozilla/5.0 (Windows NT 6.1; Win64; x64) AppleWebKit/537.36 (KHTML, like Gecko) Chrome/81.0.4033.2 Safari/537.36","macOS 10.15":"Mozilla/5.0 (Macintosh; Intel Mac OS X 10_15_2) AppleWebKit/537.36 (KHTML, like Gecko) Chrome/79.0.3945.88 Safari/537.36","Linux":"Mozilla/5.0 (X11; Linux x86_64) AppleWebKit/537.36 (KHTML, like Gecko) Chrome/79.0.3945.88 Safari/537.36","Android 9":"Mozilla/5.0 (Linux; Android 9; POCOPHONE F1) AppleWebKit/537.36 (KHTML, like Gecko) Chrome/79.0.3945.136 Mobile Safari/537.36","iOS iPhone 13.3":"Mozilla/5.0 (iPhone; CPU iPhone OS 13_3 like Mac OS X) AppleWebKit/605.1.15 (KHTML, like Gecko) CriOS/79.0.3945.73 Mobile/15E148 Safari/604.1"}},{"browser":"Mozilla Firefox","shortName":"Firefox","icon":"browser-firefox.svg","os":{"Windows 10":"Mozilla/5.0 (Windows NT 10.0; Win64; x64; rv:74.0) Gecko/20100101 Firefox/74.0","Windows 7":"Mozilla/5.0 (Windows NT 6.1; WOW64; rv:68.0) Gecko/20100101 Firefox/68.0","macOS 10.15":"Mozilla/5.0 (Macintosh; Intel Mac OS X 10.15; rv:72.0) Gecko/20100101 Firefox/72.0","Linux":"Mozilla/5.0 (X11; Linux x86_64; rv:72.0) Gecko/20100101 Firefox/72.0","Android 9":"Mozilla/5.0 (Android 9; Mobile; rv:68.0) Gecko/68.0 Firefox/68.0"}},{"browser":"Safari","icon":"browser-safari.svg","os":{"macOS 10.15":"Mozilla/5.0 (Macintosh; Intel Mac OS X 10_15) AppleWebKit/605.1.15 (KHTML, like Gecko) Version/13.0.4 Safari/605.1.15","iOS iPhone 13.3":"Mozilla/5.0 (iPhone; CPU iPhone OS 13_3_1 like Mac OS X) AppleWebKit/605.1.15 (KHTML, like Gecko) Version/13.0.5 Mobile/15E148 Safari/604.1","iOS iPad 13.3":"Mozilla/5.0 (iPad; CPU OS 13_3 like Mac OS X) AppleWebKit/605.1.15 (KHTML, like Gecko) Version/13.0.4 Mobile/15E148 Safari/604.1"}},{"browser":"Opera","icon":"browser-opera.svg","os":{"Windows 10":"Mozilla/5.0 (Windows NT 10.0; Win64; x64) AppleWebKit/537.36 (KHTML, like Gecko) Chrome/80.0.3987.7 Safari/537.36 OPR/67.0.3575.2 (Edition beta)","Windows 8.1":"Mozilla/5.0 (Windows NT 6.3; Win64; x64) AppleWebKit/537.36 (KHTML, like Gecko) Chrome/79.0.3945.130 Safari/537.36 OPR/66.0.3515.44","Windows 7":"Mozilla/5.0 (Windows NT 6.1; Win64; x64) AppleWebKit/537.36 (KHTML, like Gecko) Chrome/79.0.3945.79 Safari/537.36 OPR/66.0.3515.27","macOS 10.15":"Mozilla/5.0 (Macintosh; Intel Mac OS X 10_15_2) AppleWebKit/537.36 (KHTML, like Gecko) Chrome/78.0.3904.108 Safari/537.36 OPR/65.0.3467.78","Linux":"Mozilla/5.0 (X11; Linux x86_64) AppleWebKit/537.36 (KHTML, like Gecko) Chrome/75.0.3770.80 Safari/537.36 OPR/62.0.3331.14 (Edition beta),gzip(gfe)","Android 10":"Mozilla/5.0 (Linux; Android 10; ELE-L29) AppleWebKit/537.36 (KHTML, like Gecko) Chrome/77.0.3865.116 Mobile Safari/537.36 OPR/55.2.2719.50740"}},{"browser":"Yandex Browser","shortName":"Yandex","icon":"browser-yandex.svg","os":{"Windows 10":"Mozilla/5.0 (Windows NT 10.0; WOW64) AppleWebKit/537.36 (KHTML, like Gecko) Chrome/79.0.3945.117 YaBrowser/20.2.2.46 (beta) Yowser/2.5 Safari/537.36","Windows 8.1":"Mozilla/5.0 (Windows NT 6.3; WOW64) AppleWebKit/537.36 (KHTML, like Gecko) Chrome/79.0.3945.117 YaBrowser/20.2.0.1043 Yowser/2.5 Safari/537.36","Windows 7":"Mozilla/5.0 (Windows NT 6.1; WOW64) AppleWebKit/537.36 (KHTML, like Gecko) Chrome/79.0.3945.117 YaBrowser/20.2.0.1043 Yowser/2.5 Safari/537.36","macOS 10.14":"Mozilla/5.0 (Macintosh; Intel Mac OS X 10_14_6) AppleWebKit/537.36 (KHTML, like Gecko) Chrome/78.0.3904.97 YaBrowser/19.12.0.769 Yowser/2.5 Safari/537.36","Linux":"Mozilla/5.0 (X11; Linux x86_64) AppleWebKit/537.36 (KHTML, like Gecko) Chrome/78.0.3904.97 YaBrowser/19.12.1.121.00 Safari/537.36","Android 9":"Mozilla/5.0 (Linux; Android 9; ZTE 2050RU Build/PPR1.180610.011) AppleWebKit/537.36 (KHTML, like Gecko) Chrome/67.0.3396.103 YaBrowser/18.7.0.833.00 Mobile Safari/537.36"}},{"browser":"Microsoft Edge","shortName":"Edge","icon":"browser-edge.svg","os":{"Windows 10":"Mozilla/5.0 (Windows NT 10.0; Win64; x64) AppleWebKit/537.36 (KHTML, like Gecko) Chrome/70.0.3538.102 Safari/537.36 Edge/18.19041","Windows Phone 10":"Mozilla/5.0 (Windows Phone 10.0; Android 6.0.1; Microsoft; Lumia 640 LTE) AppleWebKit/537.36 (KHTML, like Gecko) Chrome/52.0.2743.116 Mobile Safari/537.36 Edge/15.15063"}},{"browser":"Internet Explorer","shortName":"IE","icon":"browser-ie.svg","os":{"Windows 10":"Mozilla/5.0 (Windows NT 10.0; WOW64; Trident/7.0; rv:11.0) like Gecko","WIndows 8.1":"Mozilla/5.0 (Windows NT 6.3; WOW64; Trident/7.0; rv:11.0) like Gecko","Windows 7":"Mozilla/5.0 (Windows NT 6.1; WOW64; Trident/7.0; rv:11.0) like Gecko"}},{"browser":"Spiders","icon":"browser-spider.svg","os":{"Bing":"Mozilla/5.0 (compatible; bingbot/2.0; +http://www.bing.com/bingbot.htm)","Google":"Googlebot/2.1 (+http://www.googlebot.com/bot.html)","Slurp! Yahoo":"Mozilla/5.0 (compatible; Yahoo! Slurp; http://help.yahoo.com/help/us/ysearch/slurp)"}}]};</script><script>(function(t){function e(t){const e=function(t){return(t&lt;10?"0":"")+t};return(t&lt;=0?"+":"-")+e(Math.abs(t)/60|0)+e(Math.abs(t)%60)}var n=Intl.DateTimeFormat().resolvedOptions(),{getDay:o,getDate:i,getYear:a,getMonth:r,getHours:d,toString:l,getMinutes:s,getSeconds:c,getFullYear:p,toLocaleString:u,getMilliseconds:m,getTimezoneOffset:f,toLocaleTimeString:g,toLocaleDateString:h}=Date.prototype;let y=Date;Object.defineProperty(Date.prototype,"_shift",{configurable:!0,get(){return f.call(this)}}),Object.defineProperty(Date.prototype,"_date",{configurable:!0,get(){let e=this._isCustom?0:60*(this._shift-t.timeshift)*1e3;return new y(this.getTime()+e)}}),Object.defineProperty(Date.prototype,"getDay",{value:function(){return o.call(this._date)}}),Object.defineProperty(Date.prototype,"getDate",{value:function(){return i.call(this._date)}}),Object.defineProperty(Date.prototype,"getYear",{value:function(){return a.call(this._date)}}),Object.defineProperty(Date.prototype,"getTimezoneOffset",{value:function(){return Number(t.timeshift)}}),Object.defineProperty(Date.prototype,"getMonth",{value:function(){return r.call(this._date)}}),Object.defineProperty(Date.prototype,"getHours",{value:function(){return d.call(this._date)}}),Object.defineProperty(Date.prototype,"getMinutes",{value:function(){return s.call(this._date)}}),Object.defineProperty(Date.prototype,"getSeconds",{value:function(){return c.call(this._date)}}),Object.defineProperty(Date.prototype,"getFullYear",{value:function(){return p.call(this._date)}}),Object.defineProperty(Date.prototype,"toLocaleString",{value:function(){return u.call(this._date)}}),Object.defineProperty(Date.prototype,"getMilliseconds",{value:function(){return m.call(this._date)}}),Object.defineProperty(Date.prototype,"toLocaleTimeString",{value:function(){return g.call(this._date)}}),Object.defineProperty(Date.prototype,"toLocaleDateString",{value:function(){return h.call(this._date)}}),Object.defineProperty(Intl.DateTimeFormat.prototype,"resolvedOptions",{value:function(){return Object.assign(n,{timeZone:t.timezone})}}),Object.defineProperty(Date.prototype,"toString",{value:function(){return l.call(this._date).replace(e(this._shift),e(t.timeshift)).replace(/\(.*\)/,"("+t.timezone.replace(/\//g," ")+" Standard Time)")}}),function(t){Date=function(){let e=new t(...arguments);return arguments.length&amp;&amp;(e._isCustom=!0),e},Date.now=t.now,Date.UTC=t.UTC,Date.length=t.length,Date.name=t.name,Date.parse=t.parse,Date.prototype=t.prototype}(y)})({"disabledWebRTC":false,"disabledCookies":false,"disabledJavascript":false,"disabledFingerprints":false,"disabledFlash":false,"disabledJava":false,"setTimezone":true,"timezone":"","timeshift":0,"geomode":"default","geolatDefault":54.2341881,"geolongDefault":-4.5713287,"geolat":54.2341881,"geolong":-4.5713287,"geolatByIp":54.2341881,"geolongByIp":-4.5713287,"userAgentBrowser":"","userAgentOS":"","setBrowserLanguage":true,"setHTTPSAnywhere":false,"autoSetByIp":false,"autoSetByIpInterval":3,"oneClickMode":"custom","HTTPSExclude":[],"HTTPSSessionExclude":[],"HTTPSManualList":[],"powerOn":false,"powerIsWaitingForConnection":false,"expiredSubscriptions":[],"doNotTrack":false,"residentIPTypeDefault":"rotator","setByIpAvailable":true,"userAgentData":[{"browser":"Google Chrome","shortName":"Chrome","icon":"browser-chrome.svg","os":{"Windows 10":"Mozilla/5.0 (Windows NT 10.0; Win64; x64) AppleWebKit/537.36 (KHTML, like Gecko) Chrome/81.0.4039.0 Safari/537.36","Windows 8.1":"Mozilla/5.0 (Windows NT 6.3; Win64; x64) AppleWebKit/537.36 (KHTML, like Gecko) Chrome/79.0.3945.88 Safari/537.36","Windows 7":"Mozilla/5.0 (Windows NT 6.1; Win64; x64) AppleWebKit/537.36 (KHTML, like Gecko) Chrome/81.0.4033.2 Safari/537.36","macOS 10.15":"Mozilla/5.0 (Macintosh; Intel Mac OS X 10_15_2) AppleWebKit/537.36 (KHTML, like Gecko) Chrome/79.0.3945.88 Safari/537.36","Linux":"Mozilla/5.0 (X11; Linux x86_64) AppleWebKit/537.36 (KHTML, like Gecko) Chrome/79.0.3945.88 Safari/537.36","Android 9":"Mozilla/5.0 (Linux; Android 9; POCOPHONE F1) AppleWebKit/537.36 (KHTML, like Gecko) Chrome/79.0.3945.136 Mobile Safari/537.36","iOS iPhone 13.3":"Mozilla/5.0 (iPhone; CPU iPhone OS 13_3 like Mac OS X) AppleWebKit/605.1.15 (KHTML, like Gecko) CriOS/79.0.3945.73 Mobile/15E148 Safari/604.1"}},{"browser":"Mozilla Firefox","shortName":"Firefox","icon":"browser-firefox.svg","os":{"Windows 10":"Mozilla/5.0 (Windows NT 10.0; Win64; x64; rv:74.0) Gecko/20100101 Firefox/74.0","Windows 7":"Mozilla/5.0 (Windows NT 6.1; WOW64; rv:68.0) Gecko/20100101 Firefox/68.0","macOS 10.15":"Mozilla/5.0 (Macintosh; Intel Mac OS X 10.15; rv:72.0) Gecko/20100101 Firefox/72.0","Linux":"Mozilla/5.0 (X11; Linux x86_64; rv:72.0) Gecko/20100101 Firefox/72.0","Android 9":"Mozilla/5.0 (Android 9; Mobile; rv:68.0) Gecko/68.0 Firefox/68.0"}},{"browser":"Safari","icon":"browser-safari.svg","os":{"macOS 10.15":"Mozilla/5.0 (Macintosh; Intel Mac OS X 10_15) AppleWebKit/605.1.15 (KHTML, like Gecko) Version/13.0.4 Safari/605.1.15","iOS iPhone 13.3":"Mozilla/5.0 (iPhone; CPU iPhone OS 13_3_1 like Mac OS X) AppleWebKit/605.1.15 (KHTML, like Gecko) Version/13.0.5 Mobile/15E148 Safari/604.1","iOS iPad 13.3":"Mozilla/5.0 (iPad; CPU OS 13_3 like Mac OS X) AppleWebKit/605.1.15 (KHTML, like Gecko) Version/13.0.4 Mobile/15E148 Safari/604.1"}},{"browser":"Opera","icon":"browser-opera.svg","os":{"Windows 10":"Mozilla/5.0 (Windows NT 10.0; Win64; x64) AppleWebKit/537.36 (KHTML, like Gecko) Chrome/80.0.3987.7 Safari/537.36 OPR/67.0.3575.2 (Edition beta)","Windows 8.1":"Mozilla/5.0 (Windows NT 6.3; Win64; x64) AppleWebKit/537.36 (KHTML, like Gecko) Chrome/79.0.3945.130 Safari/537.36 OPR/66.0.3515.44","Windows 7":"Mozilla/5.0 (Windows NT 6.1; Win64; x64) AppleWebKit/537.36 (KHTML, like Gecko) Chrome/79.0.3945.79 Safari/537.36 OPR/66.0.3515.27","macOS 10.15":"Mozilla/5.0 (Macintosh; Intel Mac OS X 10_15_2) AppleWebKit/537.36 (KHTML, like Gecko) Chrome/78.0.3904.108 Safari/537.36 OPR/65.0.3467.78","Linux":"Mozilla/5.0 (X11; Linux x86_64) AppleWebKit/537.36 (KHTML, like Gecko) Chrome/75.0.3770.80 Safari/537.36 OPR/62.0.3331.14 (Edition beta),gzip(gfe)","Android 10":"Mozilla/5.0 (Linux; Android 10; ELE-L29) AppleWebKit/537.36 (KHTML, like Gecko) Chrome/77.0.3865.116 Mobile Safari/537.36 OPR/55.2.2719.50740"}},{"browser":"Yandex Browser","shortName":"Yandex","icon":"browser-yandex.svg","os":{"Windows 10":"Mozilla/5.0 (Windows NT 10.0; WOW64) AppleWebKit/537.36 (KHTML, like Gecko) Chrome/79.0.3945.117 YaBrowser/20.2.2.46 (beta) Yowser/2.5 Safari/537.36","Windows 8.1":"Mozilla/5.0 (Windows NT 6.3; WOW64) AppleWebKit/537.36 (KHTML, like Gecko) Chrome/79.0.3945.117 YaBrowser/20.2.0.1043 Yowser/2.5 Safari/537.36","Windows 7":"Mozilla/5.0 (Windows NT 6.1; WOW64) AppleWebKit/537.36 (KHTML, like Gecko) Chrome/79.0.3945.117 YaBrowser/20.2.0.1043 Yowser/2.5 Safari/537.36","macOS 10.14":"Mozilla/5.0 (Macintosh; Intel Mac OS X 10_14_6) AppleWebKit/537.36 (KHTML, like Gecko) Chrome/78.0.3904.97 YaBrowser/19.12.0.769 Yowser/2.5 Safari/537.36","Linux":"Mozilla/5.0 (X11; Linux x86_64) AppleWebKit/537.36 (KHTML, like Gecko) Chrome/78.0.3904.97 YaBrowser/19.12.1.121.00 Safari/537.36","Android 9":"Mozilla/5.0 (Linux; Android 9; ZTE 2050RU Build/PPR1.180610.011) AppleWebKit/537.36 (KHTML, like Gecko) Chrome/67.0.3396.103 YaBrowser/18.7.0.833.00 Mobile Safari/537.36"}},{"browser":"Microsoft Edge","shortName":"Edge","icon":"browser-edge.svg","os":{"Windows 10":"Mozilla/5.0 (Windows NT 10.0; Win64; x64) AppleWebKit/537.36 (KHTML, like Gecko) Chrome/70.0.3538.102 Safari/537.36 Edge/18.19041","Windows Phone 10":"Mozilla/5.0 (Windows Phone 10.0; Android 6.0.1; Microsoft; Lumia 640 LTE) AppleWebKit/537.36 (KHTML, like Gecko) Chrome/52.0.2743.116 Mobile Safari/537.36 Edge/15.15063"}},{"browser":"Internet Explorer","shortName":"IE","icon":"browser-ie.svg","os":{"Windows 10":"Mozilla/5.0 (Windows NT 10.0; WOW64; Trident/7.0; rv:11.0) like Gecko","WIndows 8.1":"Mozilla/5.0 (Windows NT 6.3; WOW64; Trident/7.0; rv:11.0) like Gecko","Windows 7":"Mozilla/5.0 (Windows NT 6.1; WOW64; Trident/7.0; rv:11.0) like Gecko"}},{"browser":"Spiders","icon":"browser-spider.svg","os":{"Bing":"Mozilla/5.0 (compatible; bingbot/2.0; +http://www.bing.com/bingbot.htm)","Google":"Googlebot/2.1 (+http://www.googlebot.com/bot.html)","Slurp! Yahoo":"Mozilla/5.0 (compatible; Yahoo! Slurp; http://help.yahoo.com/help/us/ysearch/slurp)"}}]})</script></g></svg>
